<svg width="16" height="16" viewBox="0 0 14 15" fill="none" xmlns="http://www.w3.org/2000/svg">
<path d="M0.76 3.93574C1.35429 2.75234 2.26598 1.75753 3.39317 1.0625C4.52035 0.367471 5.81862 -0.000393946 7.14286 2.32426e-05C9.06786 2.32426e-05 10.685 0.70788 11.9214 1.86074L9.87357 3.90931C9.13286 3.20145 8.19143 2.84074 7.14286 2.84074C5.28214 2.84074 3.70714 4.09788 3.14643 5.78574C3.00357 6.21431 2.92214 6.67145 2.92214 7.14288C2.92214 7.61431 3.00357 8.07145 3.14643 8.50002C3.70786 10.1886 5.28214 11.445 7.14286 11.445C8.10357 11.445 8.92143 11.1915 9.56143 10.7629C9.93246 10.5186 10.2501 10.2016 10.4951 9.83109C10.7402 9.46057 10.9076 9.04421 10.9871 8.60717H7.14286V5.84431H13.87C13.9543 6.31145 14 6.7986 14 7.30502C14 9.48074 13.2214 11.3122 11.87 12.555C10.6886 13.6465 9.07143 14.2857 7.14286 14.2857C6.20474 14.2861 5.27574 14.1016 4.40896 13.7428C3.54218 13.384 2.75461 12.8578 2.09126 12.1945C1.42791 11.5311 0.901783 10.7436 0.542953 9.87678C0.184124 9.01 -0.000374901 8.081 5.71939e-07 7.14288C5.71939e-07 5.99002 0.275715 4.90002 0.76 3.93574Z" fill="white"/>
</svg>
